<?xml version="1.0" standalone="no"?>
<!DOCTYPE svg PUBLIC "-//W3C//DTD SVG 20010904//EN"
 "http://www.w3.org/TR/2001/REC-SVG-20010904/DTD/svg10.dtd">
<svg version="1.0" xmlns="http://www.w3.org/2000/svg"
 width="32.000000pt" height="32.000000pt" viewBox="0 0 32.000000 32.000000"
 preserveAspectRatio="xMidYMid meet">

<g transform="translate(0.000000,32.000000) scale(0.100000,-0.100000)"
fill="#000000" stroke="none">
<path d="M51 148 c-1 -28 6 -43 30 -67 26 -26 38 -31 79 -31 41 0 53 5 79 31
20 19 31 40 31 57 -1 23 -2 25 -11 9 -8 -13 -14 -15 -29 -7 -16 8 -18 8 -14
-5 4 -8 14 -15 23 -15 31 -1 -47 -60 -79 -60 -19 0 -42 11 -62 30 -30 27 -31
29 -11 30 12 0 25 5 28 10 4 6 -6 10 -24 10 -23 0 -31 5 -34 23 -3 14 -5 9 -6
-15z"/>
<path d="M140 130 c0 -5 5 -10 10 -10 6 0 10 5 10 10 0 6 -4 10 -10 10 -5 0
-10 -4 -10 -10z"/>
<path d="M185 130 c-3 -5 -1 -10 4 -10 6 0 11 5 11 10 0 6 -2 10 -4 10 -3 0
-8 -4 -11 -10z"/>
</g>
</svg>
